<svg xmlns="http://www.w3.org/2000/svg" data-name="Layer 1" viewBox="0 0 100 125" x="0px" y="0px"><title>66</title><g data-name="Group"><path data-name="Compound Path" d="M50,13.7A36.3,36.3,0,1,0,86.3,50,36.3,36.3,0,0,0,50,13.7Zm0,70.6A34.3,34.3,0,1,1,84.3,50,34.3,34.3,0,0,1,50,84.3Z"/><path data-name="Compound Path" d="M44.8,42.1a8.6,8.6,0,1,0-8.6,8.6A8.6,8.6,0,0,0,44.8,42.1Zm-8.6,6.6a6.6,6.6,0,1,1,6.6-6.6A6.6,6.6,0,0,1,36.2,48.7Z"/><path data-name="Path" d="M63.8,33.5a8.6,8.6,0,0,0-8.6,8.6h2a6.6,6.6,0,1,1,13.2,0h2A8.6,8.6,0,0,0,63.8,33.5Z"/><path data-name="Path" d="M50,67.7A10.8,10.8,0,0,1,39.2,56.9h-2a12.8,12.8,0,1,0,25.6,0h-2A10.8,10.8,0,0,1,50,67.7Z"/></g><text x="0" y="115" fill="#000000" font-size="5px" font-weight="bold" font-family="'Helvetica Neue', Helvetica, Arial-Unicode, Arial, Sans-serif">Created by Lakshisha</text><text x="0" y="120" fill="#000000" font-size="5px" font-weight="bold" font-family="'Helvetica Neue', Helvetica, Arial-Unicode, Arial, Sans-serif">from the Noun Project</text></svg>